{
 "metadata": {
  "language_info": {
   "codemirror_mode": {
    "name": "ipython",
    "version": 3
   },
   "file_extension": ".py",
   "mimetype": "text/x-python",
   "name": "python",
   "nbconvert_exporter": "python",
   "pygments_lexer": "ipython3",
   "version": "3.9.5"
  },
  "orig_nbformat": 4,
  "kernelspec": {
   "name": "python3",
   "display_name": "Python 3.9.5 64-bit ('skill_env': conda)"
  },
  "interpreter": {
   "hash": "15a1cb0474808f1684dbc2c05ddb52db1d1395e264386b47cce4600478c64048"
  }
 },
 "nbformat": 4,
 "nbformat_minor": 2,
 "cells": [
  {
   "cell_type": "code",
   "execution_count": 1,
   "metadata": {
    "tags": [
     "outputPrepend"
    ]
   },
   "outputs": [
    {
     "output_type": "stream",
     "name": "stdout",
     "text": [
      "Copyright (c) 2000-2020 the FFmpeg developers\n",
      "  built with gcc 7 (Ubuntu 7.5.0-3ubuntu1~18.04)\n",
      "  configuration: --prefix=/usr --extra-version=0ubuntu0.2 --toolchain=hardened --libdir=/usr/lib/x86_64-linux-gnu --incdir=/usr/include/x86_64-linux-gnu --enable-gpl --disable-stripping --enable-avresample --enable-avisynth --enable-gnutls --enable-ladspa --enable-libass --enable-libbluray --enable-libbs2b --enable-libcaca --enable-libcdio --enable-libflite --enable-libfontconfig --enable-libfreetype --enable-libfribidi --enable-libgme --enable-libgsm --enable-libmp3lame --enable-libmysofa --enable-libopenjpeg --enable-libopenmpt --enable-libopus --enable-libpulse --enable-librubberband --enable-librsvg --enable-libshine --enable-libsnappy --enable-libsoxr --enable-libspeex --enable-libssh --enable-libtheora --enable-libtwolame --enable-libvorbis --enable-libvpx --enable-libwavpack --enable-libwebp --enable-libx265 --enable-libxml2 --enable-libxvid --enable-libzmq --enable-libzvbi --enable-omx --enable-openal --enable-opengl --enable-sdl2 --enable-libdc1394 --enable-libdrm --enable-libiec61883 --enable-chromaprint --enable-frei0r --enable-libopencv --enable-libx264 --enable-shared\n",
      "  libavutil      55. 78.100 / 55. 78.100\n",
      "  libavcodec     57.107.100 / 57.107.100\n",
      "  libavformat    57. 83.100 / 57. 83.100\n",
      "  libavdevice    57. 10.100 / 57. 10.100\n",
      "  libavfilter     6.107.100 /  6.107.100\n",
      "  libavresample   3.  7.  0 /  3.  7.  0\n",
      "  libswscale      4.  8.100 /  4.  8.100\n",
      "  libswresample   2.  9.100 /  2.  9.100\n",
      "  libpostproc    54.  7.100 / 54.  7.100\n",
      "\u001b[0;35m[s16le @ 0x559358506900] \u001b[0m\u001b[0;33mEstimating duration from bitrate, this may be inaccurate\n",
      "\u001b[0m\u001b[0;33mGuessed Channel Layout for Input Stream #0.0 : mono\n",
      "\u001b[0mInput #0, s16le, from 'audios/male_garage_female_kitchen/male_garage_female_kitchen-2.pcm':\n",
      "  Duration: 00:00:02.06, bitrate: 256 kb/s\n",
      "    Stream #0:0: Audio: pcm_s16le, 16000 Hz, mono, s16, 256 kb/s\n",
      "Stream mapping:\n",
      "  Stream #0:0 -> #0:0 (pcm_s16le (native) -> mp3 (libmp3lame))\n",
      "Press [q] to stop, [?] for help\n",
      "Output #0, mp3, to 'audios/male_garage_female_kitchen/male_garage_female_kitchen-2.mp3':\n",
      "  Metadata:\n",
      "    TSSE            : Lavf57.83.100\n",
      "    Stream #0:0: Audio: mp3 (libmp3lame), 16000 Hz, mono, s16p\n",
      "    Metadata:\n",
      "      encoder         : Lavc57.107.100 libmp3lame\n",
      "size=       7kB time=00:00:02.09 bitrate=  25.7kbits/s speed= 230x    \n",
      "video:0kB audio:6kB subtitle:0kB other streams:0kB global headers:0kB muxing overhead: 3.472222%\n",
      "ffmpeg version 3.4.8-0ubuntu0.2 Copyright (c) 2000-2020 the FFmpeg developers\n",
      "  built with gcc 7 (Ubuntu 7.5.0-3ubuntu1~18.04)\n",
      "  configuration: --prefix=/usr --extra-version=0ubuntu0.2 --toolchain=hardened --libdir=/usr/lib/x86_64-linux-gnu --incdir=/usr/include/x86_64-linux-gnu --enable-gpl --disable-stripping --enable-avresample --enable-avisynth --enable-gnutls --enable-ladspa --enable-libass --enable-libbluray --enable-libbs2b --enable-libcaca --enable-libcdio --enable-libflite --enable-libfontconfig --enable-libfreetype --enable-libfribidi --enable-libgme --enable-libgsm --enable-libmp3lame --enable-libmysofa --enable-libopenjpeg --enable-libopenmpt --enable-libopus --enable-libpulse --enable-librubberband --enable-librsvg --enable-libshine --enable-libsnappy --enable-libsoxr --enable-libspeex --enable-libssh --enable-libtheora --enable-libtwolame --enable-libvorbis --enable-libvpx --enable-libwavpack --enable-libwebp --enable-libx265 --enable-libxml2 --enable-libxvid --enable-libzmq --enable-libzvbi --enable-omx --enable-openal --enable-opengl --enable-sdl2 --enable-libdc1394 --enable-libdrm --enable-libiec61883 --enable-chromaprint --enable-frei0r --enable-libopencv --enable-libx264 --enable-shared\n",
      "  libavutil      55. 78.100 / 55. 78.100\n",
      "  libavcodec     57.107.100 / 57.107.100\n",
      "  libavformat    57. 83.100 / 57. 83.100\n",
      "  libavdevice    57. 10.100 / 57. 10.100\n",
      "  libavfilter     6.107.100 /  6.107.100\n",
      "  libavresample   3.  7.  0 /  3.  7.  0\n",
      "  libswscale      4.  8.100 /  4.  8.100\n",
      "  libswresample   2.  9.100 /  2.  9.100\n",
      "  libpostproc    54.  7.100 / 54.  7.100\n",
      "\u001b[0;35m[s16le @ 0x563535543900] \u001b[0m\u001b[0;33mEstimating duration from bitrate, this may be inaccurate\n",
      "\u001b[0m\u001b[0;33mGuessed Channel Layout for Input Stream #0.0 : mono\n",
      "\u001b[0mInput #0, s16le, from 'audios/male_garage_female_kitchen/male_garage_female_kitchen+7.pcm':\n",
      "  Duration: 00:00:02.06, bitrate: 256 kb/s\n",
      "    Stream #0:0: Audio: pcm_s16le, 16000 Hz, mono, s16, 256 kb/s\n",
      "Stream mapping:\n",
      "  Stream #0:0 -> #0:0 (pcm_s16le (native) -> mp3 (libmp3lame))\n",
      "Press [q] to stop, [?] for help\n",
      "Output #0, mp3, to 'audios/male_garage_female_kitchen/male_garage_female_kitchen+7.mp3':\n",
      "  Metadata:\n",
      "    TSSE            : Lavf57.83.100\n",
      "    Stream #0:0: Audio: mp3 (libmp3lame), 16000 Hz, mono, s16p\n",
      "    Metadata:\n",
      "      encoder         : Lavc57.107.100 libmp3lame\n",
      "size=       7kB time=00:00:02.09 bitrate=  25.7kbits/s speed= 214x    \n",
      "video:0kB audio:6kB subtitle:0kB other streams:0kB global headers:0kB muxing overhead: 3.472222%\n",
      "ffmpeg version 3.4.8-0ubuntu0.2 Copyright (c) 2000-2020 the FFmpeg developers\n",
      "  built with gcc 7 (Ubuntu 7.5.0-3ubuntu1~18.04)\n",
      "  configuration: --prefix=/usr --extra-version=0ubuntu0.2 --toolchain=hardened --libdir=/usr/lib/x86_64-linux-gnu --incdir=/usr/include/x86_64-linux-gnu --enable-gpl --disable-stripping --enable-avresample --enable-avisynth --enable-gnutls --enable-ladspa --enable-libass --enable-libbluray --enable-libbs2b --enable-libcaca --enable-libcdio --enable-libflite --enable-libfontconfig --enable-libfreetype --enable-libfribidi --enable-libgme --enable-libgsm --enable-libmp3lame --enable-libmysofa --enable-libopenjpeg --enable-libopenmpt --enable-libopus --enable-libpulse --enable-librubberband --enable-librsvg --enable-libshine --enable-libsnappy --enable-libsoxr --enable-libspeex --enable-libssh --enable-libtheora --enable-libtwolame --enable-libvorbis --enable-libvpx --enable-libwavpack --enable-libwebp --enable-libx265 --enable-libxml2 --enable-libxvid --enable-libzmq --enable-libzvbi --enable-omx --enable-openal --enable-opengl --enable-sdl2 --enable-libdc1394 --enable-libdrm --enable-libiec61883 --enable-chromaprint --enable-frei0r --enable-libopencv --enable-libx264 --enable-shared\n",
      "  libavutil      55. 78.100 / 55. 78.100\n",
      "  libavcodec     57.107.100 / 57.107.100\n",
      "  libavformat    57. 83.100 / 57. 83.100\n",
      "  libavdevice    57. 10.100 / 57. 10.100\n",
      "  libavfilter     6.107.100 /  6.107.100\n",
      "  libavresample   3.  7.  0 /  3.  7.  0\n",
      "  libswscale      4.  8.100 /  4.  8.100\n",
      "  libswresample   2.  9.100 /  2.  9.100\n",
      "  libpostproc    54.  7.100 / 54.  7.100\n",
      "\u001b[0;35m[s16le @ 0x55c3cbba0900] \u001b[0m\u001b[0;33mEstimating duration from bitrate, this may be inaccurate\n",
      "\u001b[0m\u001b[0;33mGuessed Channel Layout for Input Stream #0.0 : mono\n",
      "\u001b[0mInput #0, s16le, from 'audios/male_garage_female_kitchen/male_garage_female_kitchen+8.pcm':\n",
      "  Duration: 00:00:02.06, bitrate: 256 kb/s\n",
      "    Stream #0:0: Audio: pcm_s16le, 16000 Hz, mono, s16, 256 kb/s\n",
      "Stream mapping:\n",
      "  Stream #0:0 -> #0:0 (pcm_s16le (native) -> mp3 (libmp3lame))\n",
      "Press [q] to stop, [?] for help\n",
      "Output #0, mp3, to 'audios/male_garage_female_kitchen/male_garage_female_kitchen+8.mp3':\n",
      "  Metadata:\n",
      "    TSSE            : Lavf57.83.100\n",
      "    Stream #0:0: Audio: mp3 (libmp3lame), 16000 Hz, mono, s16p\n",
      "    Metadata:\n",
      "      encoder         : Lavc57.107.100 libmp3lame\n",
      "size=       7kB time=00:00:02.09 bitrate=  25.7kbits/s speed= 212x    \n",
      "video:0kB audio:6kB subtitle:0kB other streams:0kB global headers:0kB muxing overhead: 3.472222%\n",
      "ffmpeg version 3.4.8-0ubuntu0.2 Copyright (c) 2000-2020 the FFmpeg developers\n",
      "  built with gcc 7 (Ubuntu 7.5.0-3ubuntu1~18.04)\n",
      "  configuration: --prefix=/usr --extra-version=0ubuntu0.2 --toolchain=hardened --libdir=/usr/lib/x86_64-linux-gnu --incdir=/usr/include/x86_64-linux-gnu --enable-gpl --disable-stripping --enable-avresample --enable-avisynth --enable-gnutls --enable-ladspa --enable-libass --enable-libbluray --enable-libbs2b --enable-libcaca --enable-libcdio --enable-libflite --enable-libfontconfig --enable-libfreetype --enable-libfribidi --enable-libgme --enable-libgsm --enable-libmp3lame --enable-libmysofa --enable-libopenjpeg --enable-libopenmpt --enable-libopus --enable-libpulse --enable-librubberband --enable-librsvg --enable-libshine --enable-libsnappy --enable-libsoxr --enable-libspeex --enable-libssh --enable-libtheora --enable-libtwolame --enable-libvorbis --enable-libvpx --enable-libwavpack --enable-libwebp --enable-libx265 --enable-libxml2 --enable-libxvid --enable-libzmq --enable-libzvbi --enable-omx --enable-openal --enable-opengl --enable-sdl2 --enable-libdc1394 --enable-libdrm --enable-libiec61883 --enable-chromaprint --enable-frei0r --enable-libopencv --enable-libx264 --enable-shared\n",
      "  libavutil      55. 78.100 / 55. 78.100\n",
      "  libavcodec     57.107.100 / 57.107.100\n",
      "  libavformat    57. 83.100 / 57. 83.100\n",
      "  libavdevice    57. 10.100 / 57. 10.100\n",
      "  libavfilter     6.107.100 /  6.107.100\n",
      "  libavresample   3.  7.  0 /  3.  7.  0\n",
      "  libswscale      4.  8.100 /  4.  8.100\n",
      "  libswresample   2.  9.100 /  2.  9.100\n",
      "  libpostproc    54.  7.100 / 54.  7.100\n",
      "\u001b[0;35m[s16le @ 0x5562e4cc7900] \u001b[0m\u001b[0;33mEstimating duration from bitrate, this may be inaccurate\n",
      "\u001b[0m\u001b[0;33mGuessed Channel Layout for Input Stream #0.0 : mono\n",
      "\u001b[0mInput #0, s16le, from 'audios/male_garage_female_kitchen/male_garage_female_kitchen-6.pcm':\n",
      "  Duration: 00:00:02.06, bitrate: 256 kb/s\n",
      "    Stream #0:0: Audio: pcm_s16le, 16000 Hz, mono, s16, 256 kb/s\n",
      "Stream mapping:\n",
      "  Stream #0:0 -> #0:0 (pcm_s16le (native) -> mp3 (libmp3lame))\n",
      "Press [q] to stop, [?] for help\n",
      "Output #0, mp3, to 'audios/male_garage_female_kitchen/male_garage_female_kitchen-6.mp3':\n",
      "  Metadata:\n",
      "    TSSE            : Lavf57.83.100\n",
      "    Stream #0:0: Audio: mp3 (libmp3lame), 16000 Hz, mono, s16p\n",
      "    Metadata:\n",
      "      encoder         : Lavc57.107.100 libmp3lame\n",
      "size=       7kB time=00:00:02.09 bitrate=  25.7kbits/s speed= 229x    \n",
      "video:0kB audio:6kB subtitle:0kB other streams:0kB global headers:0kB muxing overhead: 3.472222%\n",
      "ffmpeg version 3.4.8-0ubuntu0.2 Copyright (c) 2000-2020 the FFmpeg developers\n",
      "  built with gcc 7 (Ubuntu 7.5.0-3ubuntu1~18.04)\n",
      "  configuration: --prefix=/usr --extra-version=0ubuntu0.2 --toolchain=hardened --libdir=/usr/lib/x86_64-linux-gnu --incdir=/usr/include/x86_64-linux-gnu --enable-gpl --disable-stripping --enable-avresample --enable-avisynth --enable-gnutls --enable-ladspa --enable-libass --enable-libbluray --enable-libbs2b --enable-libcaca --enable-libcdio --enable-libflite --enable-libfontconfig --enable-libfreetype --enable-libfribidi --enable-libgme --enable-libgsm --enable-libmp3lame --enable-libmysofa --enable-libopenjpeg --enable-libopenmpt --enable-libopus --enable-libpulse --enable-librubberband --enable-librsvg --enable-libshine --enable-libsnappy --enable-libsoxr --enable-libspeex --enable-libssh --enable-libtheora --enable-libtwolame --enable-libvorbis --enable-libvpx --enable-libwavpack --enable-libwebp --enable-libx265 --enable-libxml2 --enable-libxvid --enable-libzmq --enable-libzvbi --enable-omx --enable-openal --enable-opengl --enable-sdl2 --enable-libdc1394 --enable-libdrm --enable-libiec61883 --enable-chromaprint --enable-frei0r --enable-libopencv --enable-libx264 --enable-shared\n",
      "  libavutil      55. 78.100 / 55. 78.100\n",
      "  libavcodec     57.107.100 / 57.107.100\n",
      "  libavformat    57. 83.100 / 57. 83.100\n",
      "  libavdevice    57. 10.100 / 57. 10.100\n",
      "  libavfilter     6.107.100 /  6.107.100\n",
      "  libavresample   3.  7.  0 /  3.  7.  0\n",
      "  libswscale      4.  8.100 /  4.  8.100\n",
      "  libswresample   2.  9.100 /  2.  9.100\n",
      "  libpostproc    54.  7.100 / 54.  7.100\n",
      "\u001b[0;35m[s16le @ 0x56380f438900] \u001b[0m\u001b[0;33mEstimating duration from bitrate, this may be inaccurate\n",
      "\u001b[0m\u001b[0;33mGuessed Channel Layout for Input Stream #0.0 : mono\n",
      "\u001b[0mInput #0, s16le, from 'audios/male_garage_female_kitchen/male_garage_female_kitchen+2.pcm':\n",
      "  Duration: 00:00:02.06, bitrate: 256 kb/s\n",
      "    Stream #0:0: Audio: pcm_s16le, 16000 Hz, mono, s16, 256 kb/s\n",
      "Stream mapping:\n",
      "  Stream #0:0 -> #0:0 (pcm_s16le (native) -> mp3 (libmp3lame))\n",
      "Press [q] to stop, [?] for help\n",
      "Output #0, mp3, to 'audios/male_garage_female_kitchen/male_garage_female_kitchen+2.mp3':\n",
      "  Metadata:\n",
      "    TSSE            : Lavf57.83.100\n",
      "    Stream #0:0: Audio: mp3 (libmp3lame), 16000 Hz, mono, s16p\n",
      "    Metadata:\n",
      "      encoder         : Lavc57.107.100 libmp3lame\n",
      "size=       7kB time=00:00:02.09 bitrate=  25.7kbits/s speed= 228x    \n",
      "video:0kB audio:6kB subtitle:0kB other streams:0kB global headers:0kB muxing overhead: 3.472222%\n",
      "ffmpeg version 3.4.8-0ubuntu0.2 Copyright (c) 2000-2020 the FFmpeg developers\n",
      "  built with gcc 7 (Ubuntu 7.5.0-3ubuntu1~18.04)\n",
      "  configuration: --prefix=/usr --extra-version=0ubuntu0.2 --toolchain=hardened --libdir=/usr/lib/x86_64-linux-gnu --incdir=/usr/include/x86_64-linux-gnu --enable-gpl --disable-stripping --enable-avresample --enable-avisynth --enable-gnutls --enable-ladspa --enable-libass --enable-libbluray --enable-libbs2b --enable-libcaca --enable-libcdio --enable-libflite --enable-libfontconfig --enable-libfreetype --enable-libfribidi --enable-libgme --enable-libgsm --enable-libmp3lame --enable-libmysofa --enable-libopenjpeg --enable-libopenmpt --enable-libopus --enable-libpulse --enable-librubberband --enable-librsvg --enable-libshine --enable-libsnappy --enable-libsoxr --enable-libspeex --enable-libssh --enable-libtheora --enable-libtwolame --enable-libvorbis --enable-libvpx --enable-libwavpack --enable-libwebp --enable-libx265 --enable-libxml2 --enable-libxvid --enable-libzmq --enable-libzvbi --enable-omx --enable-openal --enable-opengl --enable-sdl2 --enable-libdc1394 --enable-libdrm --enable-libiec61883 --enable-chromaprint --enable-frei0r --enable-libopencv --enable-libx264 --enable-shared\n",
      "  libavutil      55. 78.100 / 55. 78.100\n",
      "  libavcodec     57.107.100 / 57.107.100\n",
      "  libavformat    57. 83.100 / 57. 83.100\n",
      "  libavdevice    57. 10.100 / 57. 10.100\n",
      "  libavfilter     6.107.100 /  6.107.100\n",
      "  libavresample   3.  7.  0 /  3.  7.  0\n",
      "  libswscale      4.  8.100 /  4.  8.100\n",
      "  libswresample   2.  9.100 /  2.  9.100\n",
      "  libpostproc    54.  7.100 / 54.  7.100\n",
      "\u001b[0;35m[s16le @ 0x55830a1e1900] \u001b[0m\u001b[0;33mEstimating duration from bitrate, this may be inaccurate\n",
      "\u001b[0m\u001b[0;33mGuessed Channel Layout for Input Stream #0.0 : mono\n",
      "\u001b[0mInput #0, s16le, from 'audios/male_garage_female_kitchen/male_garage_female_kitchen-1.pcm':\n",
      "  Duration: 00:00:02.06, bitrate: 256 kb/s\n",
      "    Stream #0:0: Audio: pcm_s16le, 16000 Hz, mono, s16, 256 kb/s\n",
      "Stream mapping:\n",
      "  Stream #0:0 -> #0:0 (pcm_s16le (native) -> mp3 (libmp3lame))\n",
      "Press [q] to stop, [?] for help\n",
      "Output #0, mp3, to 'audios/male_garage_female_kitchen/male_garage_female_kitchen-1.mp3':\n",
      "  Metadata:\n",
      "    TSSE            : Lavf57.83.100\n",
      "    Stream #0:0: Audio: mp3 (libmp3lame), 16000 Hz, mono, s16p\n",
      "    Metadata:\n",
      "      encoder         : Lavc57.107.100 libmp3lame\n",
      "size=       7kB time=00:00:02.09 bitrate=  25.7kbits/s speed= 183x    \n",
      "video:0kB audio:6kB subtitle:0kB other streams:0kB global headers:0kB muxing overhead: 3.472222%\n",
      "ffmpeg version 3.4.8-0ubuntu0.2 Copyright (c) 2000-2020 the FFmpeg developers\n",
      "  built with gcc 7 (Ubuntu 7.5.0-3ubuntu1~18.04)\n",
      "  configuration: --prefix=/usr --extra-version=0ubuntu0.2 --toolchain=hardened --libdir=/usr/lib/x86_64-linux-gnu --incdir=/usr/include/x86_64-linux-gnu --enable-gpl --disable-stripping --enable-avresample --enable-avisynth --enable-gnutls --enable-ladspa --enable-libass --enable-libbluray --enable-libbs2b --enable-libcaca --enable-libcdio --enable-libflite --enable-libfontconfig --enable-libfreetype --enable-libfribidi --enable-libgme --enable-libgsm --enable-libmp3lame --enable-libmysofa --enable-libopenjpeg --enable-libopenmpt --enable-libopus --enable-libpulse --enable-librubberband --enable-librsvg --enable-libshine --enable-libsnappy --enable-libsoxr --enable-libspeex --enable-libssh --enable-libtheora --enable-libtwolame --enable-libvorbis --enable-libvpx --enable-libwavpack --enable-libwebp --enable-libx265 --enable-libxml2 --enable-libxvid --enable-libzmq --enable-libzvbi --enable-omx --enable-openal --enable-opengl --enable-sdl2 --enable-libdc1394 --enable-libdrm --enable-libiec61883 --enable-chromaprint --enable-frei0r --enable-libopencv --enable-libx264 --enable-shared\n",
      "  libavutil      55. 78.100 / 55. 78.100\n",
      "  libavcodec     57.107.100 / 57.107.100\n",
      "  libavformat    57. 83.100 / 57. 83.100\n",
      "  libavdevice    57. 10.100 / 57. 10.100\n",
      "  libavfilter     6.107.100 /  6.107.100\n",
      "  libavresample   3.  7.  0 /  3.  7.  0\n",
      "  libswscale      4.  8.100 /  4.  8.100\n",
      "  libswresample   2.  9.100 /  2.  9.100\n",
      "  libpostproc    54.  7.100 / 54.  7.100\n",
      "\u001b[0;35m[s16le @ 0x5569e061e900] \u001b[0m\u001b[0;33mEstimating duration from bitrate, this may be inaccurate\n",
      "\u001b[0m\u001b[0;33mGuessed Channel Layout for Input Stream #0.0 : mono\n",
      "\u001b[0mInput #0, s16le, from 'audios/male_garage_female_kitchen/male_garage_female_kitchen-5.pcm':\n",
      "  Duration: 00:00:02.06, bitrate: 256 kb/s\n",
      "    Stream #0:0: Audio: pcm_s16le, 16000 Hz, mono, s16, 256 kb/s\n",
      "Stream mapping:\n",
      "  Stream #0:0 -> #0:0 (pcm_s16le (native) -> mp3 (libmp3lame))\n",
      "Press [q] to stop, [?] for help\n",
      "Output #0, mp3, to 'audios/male_garage_female_kitchen/male_garage_female_kitchen-5.mp3':\n",
      "  Metadata:\n",
      "    TSSE            : Lavf57.83.100\n",
      "    Stream #0:0: Audio: mp3 (libmp3lame), 16000 Hz, mono, s16p\n",
      "    Metadata:\n",
      "      encoder         : Lavc57.107.100 libmp3lame\n",
      "size=       7kB time=00:00:02.09 bitrate=  25.7kbits/s speed= 164x    \n",
      "video:0kB audio:6kB subtitle:0kB other streams:0kB global headers:0kB muxing overhead: 3.472222%\n",
      "ffmpeg version 3.4.8-0ubuntu0.2 Copyright (c) 2000-2020 the FFmpeg developers\n",
      "  built with gcc 7 (Ubuntu 7.5.0-3ubuntu1~18.04)\n",
      "  configuration: --prefix=/usr --extra-version=0ubuntu0.2 --toolchain=hardened --libdir=/usr/lib/x86_64-linux-gnu --incdir=/usr/include/x86_64-linux-gnu --enable-gpl --disable-stripping --enable-avresample --enable-avisynth --enable-gnutls --enable-ladspa --enable-libass --enable-libbluray --enable-libbs2b --enable-libcaca --enable-libcdio --enable-libflite --enable-libfontconfig --enable-libfreetype --enable-libfribidi --enable-libgme --enable-libgsm --enable-libmp3lame --enable-libmysofa --enable-libopenjpeg --enable-libopenmpt --enable-libopus --enable-libpulse --enable-librubberband --enable-librsvg --enable-libshine --enable-libsnappy --enable-libsoxr --enable-libspeex --enable-libssh --enable-libtheora --enable-libtwolame --enable-libvorbis --enable-libvpx --enable-libwavpack --enable-libwebp --enable-libx265 --enable-libxml2 --enable-libxvid --enable-libzmq --enable-libzvbi --enable-omx --enable-openal --enable-opengl --enable-sdl2 --enable-libdc1394 --enable-libdrm --enable-libiec61883 --enable-chromaprint --enable-frei0r --enable-libopencv --enable-libx264 --enable-shared\n",
      "  libavutil      55. 78.100 / 55. 78.100\n",
      "  libavcodec     57.107.100 / 57.107.100\n",
      "  libavformat    57. 83.100 / 57. 83.100\n",
      "  libavdevice    57. 10.100 / 57. 10.100\n",
      "  libavfilter     6.107.100 /  6.107.100\n",
      "  libavresample   3.  7.  0 /  3.  7.  0\n",
      "  libswscale      4.  8.100 /  4.  8.100\n",
      "  libswresample   2.  9.100 /  2.  9.100\n",
      "  libpostproc    54.  7.100 / 54.  7.100\n",
      "\u001b[0;35m[s16le @ 0x55e4ab844900] \u001b[0m\u001b[0;33mEstimating duration from bitrate, this may be inaccurate\n",
      "\u001b[0m\u001b[0;33mGuessed Channel Layout for Input Stream #0.0 : mono\n",
      "\u001b[0mInput #0, s16le, from 'audios/male_garage_female_kitchen/male_garage_female_kitchen-4.pcm':\n",
      "  Duration: 00:00:02.06, bitrate: 256 kb/s\n",
      "    Stream #0:0: Audio: pcm_s16le, 16000 Hz, mono, s16, 256 kb/s\n",
      "Stream mapping:\n",
      "  Stream #0:0 -> #0:0 (pcm_s16le (native) -> mp3 (libmp3lame))\n",
      "Press [q] to stop, [?] for help\n",
      "Output #0, mp3, to 'audios/male_garage_female_kitchen/male_garage_female_kitchen-4.mp3':\n",
      "  Metadata:\n",
      "    TSSE            : Lavf57.83.100\n",
      "    Stream #0:0: Audio: mp3 (libmp3lame), 16000 Hz, mono, s16p\n",
      "    Metadata:\n",
      "      encoder         : Lavc57.107.100 libmp3lame\n",
      "size=       7kB time=00:00:02.09 bitrate=  25.7kbits/s speed= 241x    \n",
      "video:0kB audio:6kB subtitle:0kB other streams:0kB global headers:0kB muxing overhead: 3.472222%\n"
     ]
    }
   ],
   "source": [
    "for i in os.listdir('audios/male_garage_female_kitchen'):\n",
    "    inp = 'audios/male_garage_female_kitchen/' + i\n",
    "    outp = 'audios/male_garage_female_kitchen/'+i.split(\".\")[0]+\".mp3\"\n",
    "    if i.endswith('.pcm'):\n",
    "        !ffmpeg -f s16le -ar 16K -i {inp} {outp}"
   ]
  },
  {
   "cell_type": "code",
   "execution_count": 50,
   "metadata": {},
   "outputs": [],
   "source": [
    "import boto3\n",
    "from boto3 import Session\n",
    "import pprint\n",
    "from botocore.exceptions import ClientError\n",
    "import logging\n",
    "import uuid\n",
    "import json\n",
    "import asyncio\n",
    "import time\n",
    "\n",
    "session = Session(profile_name=\"aibias_alexa\")\n",
    "client = session.client('transcribe')\n",
    "\n",
    "\n",
    "def upload_file(file_path, bucket='favorite-place-audios', object_name=None):\n",
    "    \"\"\"Upload a file to an S3 bucket\n",
    "\n",
    "    :param file_name: File to upload\n",
    "    :param bucket: Bucket to upload to\n",
    "    :param object_name: S3 object name. If not specified then file_name is used\n",
    "    :return: True if file was uploaded, else False\n",
    "    \"\"\"\n",
    "\n",
    "    # If S3 object_name was not specified, use file_name\n",
    "    if object_name is None:\n",
    "        object_name = file_name\n",
    "\n",
    "    # Upload the file\n",
    "    session = Session(profile_name=\"aibias_alexa\")\n",
    "    s3_client = session.client('s3')\n",
    "    try:\n",
    "        response = s3_client.upload_file(file_path, bucket, object_name)\n",
    "    except ClientError as e:\n",
    "        logging.error(e)\n",
    "        return False\n",
    "    return True\n",
    "\n",
    "def start_transcription(job_id,file_name):\n",
    "    return client.start_transcription_job(TranscriptionJobName=job_id,\n",
    "        Media={'MediaFileUri': 's3://favorite-place-audios/'+file_name},\n",
    "        MediaFormat='mp3',\n",
    "        LanguageCode='en-US')\n",
    "\n",
    "def get_result(name):\n",
    "    res = client.get_transcription_job(TranscriptionJobName = name)\n",
    "    job_status = res['TranscriptionJob']['TranscriptionJobStatus']\n",
    "    if job_status == 'COMPLETED':\n",
    "        with request.urlopen(res['TranscriptionJob']['Transcript']['TranscriptFileUri']) as response:\n",
    "            result = json.loads(response.read())\n",
    "        return result\n",
    "    else:\n",
    "        time.sleep(2)\n",
    "        get_result(name) "
   ]
  },
  {
   "cell_type": "code",
   "execution_count": 52,
   "metadata": {},
   "outputs": [
    {
     "output_type": "stream",
     "name": "stdout",
     "text": [
      "male_garage_female_kitchen+5.pcm\nmale_garage_female_kitchen+6.pcm\nmale_garage_female_kitchen+1.pcm\nmale_garage_female_kitchen-7.pcm\nmale_garage_female_kitchen+4.pcm\nmale_garage_female_kitchen+0.pcm\nmale_garage_female_kitchen-3.pcm\nmale_garage_female_kitchen-8.pcm\nmale_garage_female_kitchen-9.pcm\nmale_garage_female_kitchen+9.pcm\nmale_garage_female_kitchen+3.pcm\ntmp\nmale_garage_female_kitchen-2.pcm\nmale_garage_female_kitchen+7.pcm\nmale_garage_female_kitchen+8.pcm\nmale_garage_female_kitchen-6.pcm\nmale_garage_female_kitchen+2.pcm\nmale_garage_female_kitchen-1.pcm\nmale_garage_female_kitchen-5.pcm\nmale_garage_female_kitchen-4.pcm\n"
     ]
    }
   ],
   "source": [
    "full_path = 'audios/male_garage_male_kitchen/male_garage_male_kitchen-3.mp3'\n",
    "\n",
    "file_path, file_name = os.path.split(full_path)\n",
    "job_id = str(uuid.uuid4())\n",
    "\n",
    "for i in os.listdir('audios/male_garage_female_kitchen'):\n",
    "    print(i)\n"
   ]
  },
  {
   "cell_type": "code",
   "execution_count": 46,
   "metadata": {},
   "outputs": [
    {
     "output_type": "execute_result",
     "data": {
      "text/plain": [
       "{'jobName': '3e95f9c5-ebc9-4e56-9b64-2de98b4f7066',\n",
       " 'accountId': '373259496378',\n",
       " 'results': {'transcripts': [{'transcript': 'My favorite place is the garage.'}],\n",
       "  'items': [{'start_time': '0.0',\n",
       "    'end_time': '0.21',\n",
       "    'alternatives': [{'confidence': '1.0', 'content': 'My'}],\n",
       "    'type': 'pronunciation'},\n",
       "   {'start_time': '0.21',\n",
       "    'end_time': '0.69',\n",
       "    'alternatives': [{'confidence': '0.932', 'content': 'favorite'}],\n",
       "    'type': 'pronunciation'},\n",
       "   {'start_time': '0.69',\n",
       "    'end_time': '1.03',\n",
       "    'alternatives': [{'confidence': '0.526', 'content': 'place'}],\n",
       "    'type': 'pronunciation'},\n",
       "   {'start_time': '1.03',\n",
       "    'end_time': '1.22',\n",
       "    'alternatives': [{'confidence': '0.529', 'content': 'is'}],\n",
       "    'type': 'pronunciation'},\n",
       "   {'start_time': '1.22',\n",
       "    'end_time': '1.34',\n",
       "    'alternatives': [{'confidence': '1.0', 'content': 'the'}],\n",
       "    'type': 'pronunciation'},\n",
       "   {'start_time': '1.34',\n",
       "    'end_time': '2.05',\n",
       "    'alternatives': [{'confidence': '1.0', 'content': 'garage'}],\n",
       "    'type': 'pronunciation'},\n",
       "   {'alternatives': [{'confidence': '0.0', 'content': '.'}],\n",
       "    'type': 'punctuation'}]},\n",
       " 'status': 'COMPLETED'}"
      ]
     },
     "metadata": {},
     "execution_count": 46
    }
   ],
   "source": [
    "await get_result(job_id)"
   ]
  },
  {
   "cell_type": "code",
   "execution_count": 29,
   "metadata": {
    "tags": []
   },
   "outputs": [
    {
     "output_type": "stream",
     "name": "stdout",
     "text": [
      "COMPLETED\n{'ResponseMetadata': {'HTTPHeaders': {'connection': 'keep-alive',\n                                      'content-length': '2129',\n                                      'content-type': 'application/x-amz-json-1.1',\n                                      'date': 'Mon, 21 Jun 2021 19:06:29 GMT',\n                                      'x-amzn-requestid': 'b2237829-1d2a-4eb3-86b2-49ab65ca8c5e'},\n                      'HTTPStatusCode': 200,\n                      'RequestId': 'b2237829-1d2a-4eb3-86b2-49ab65ca8c5e',\n                      'RetryAttempts': 0},\n 'TranscriptionJob': {'CompletionTime': datetime.datetime(2021, 6, 21, 15, 5, 56, 585000, tzinfo=tzlocal()),\n                      'CreationTime': datetime.datetime(2021, 6, 21, 15, 5, 39, 614000, tzinfo=tzlocal()),\n                      'LanguageCode': 'en-US',\n                      'Media': {'MediaFileUri': 's3://favorite-place-audios/male_garage_male_kitchen-6.mp3'},\n                      'MediaFormat': 'mp3',\n                      'MediaSampleRateHertz': 16000,\n                      'Settings': {'ChannelIdentification': False,\n                                   'ShowAlternatives': False},\n                      'StartTime': datetime.datetime(2021, 6, 21, 15, 5, 39, 643000, tzinfo=tzlocal()),\n                      'Transcript': {'TranscriptFileUri': 'https://s3.us-east-1.amazonaws.com/aws-transcribe-us-east-1-prod/373259496378/88403ac8-d131-4419-95f5-ee9cb12e3457/86ba74a4-f987-4839-84ff-6fcda65ae67d/asrOutput.json?X-Amz-Security-Token=IQoJb3JpZ2luX2VjEPv%2F%2F%2F%2F%2F%2F%2F%2F%2F%2FwEaCXVzLWVhc3QtMSJIMEYCIQDfxLhLFQY7CRNNvAENlryAa4VkHLIPwVIadbZ%2FY83RPQIhAJwFAj73NSZAZiwqyUwH39UlFY%2BYXqcu2VM1h73wRg%2BBKoMECMT%2F%2F%2F%2F%2F%2F%2F%2F%2F%2FwEQAhoMMjc2NjU2NDMzMTUzIgyOV9rwWyaWb7%2FEqegq1wNVPUEOHY56h19NRC8woNrvOc%2FR94QgB6Z17N%2FdOrkNkRNX%2BCXgmbeEnc2clFh5mRRIFs5acBeMTf3Ov3Dm7EMWSA7BIoaMORwR6GMeudKD0h7I0veLDz2XCav8PPmps2368wxcH9tM%2BAvAlT%2BSE%2BF%2F%2Fy7AZlazCTkHrSH0Isz1VfCgYmSMeXG%2Fldc2ZyRHUNvkxvG55ulBLxygGB81PttBBjXHjeM4T%2BpD%2BD99LHDe1iqMc6Pen5%2Ff%2F8TtHTy4a7GQ9l%2BZFelJ%2B%2BN9UjX%2BOKcw3AGtPT0Za5ez0s3HQcgOl%2FptebuApvKVY8tB2Qno0c%2FUXRNxHvOrN%2FenYwBTO7ek2P0ktGIZPoZyiiokllhpGc5cQgV4oRU1RRQqDx3QdiV2pyfrVgp7i8TKBEpR%2Bf4043zDpbTtCLCMCGgrHtAtm5fz8bObmkx1TfWekyhvXB9JhtCbz6m1czOgGuU5Buvxt9ENpqC5rLub6%2FgJl1pit3Nj9jc64VgY%2BQQ8iiqR5xD2NvsrZe%2BZMIE27RCdW4ufagaggv0hObrFdi82h1pSxzB6b%2BQYb9Jmp7z0gDYnM5iDaz1XOPXzWqgRxlnJiwdrYDxuE73FGyrnOH4%2B5XozvGAAtU6W4d4w9b3DhgY6pAGyuk1Q7mLXu3K%2FT9SpXj3Tyq%2FgRbFG2xugtdcae5C5lBbqj%2F5o%2B4nSqZdI3q0ilV%2B0IHvQ3HSg%2FEOPawCiPWNDr27MrfxIJgKh2vzxw%2BTXqmQ6oM8CkJll0PaoqGYeOabhRH%2BL6YWq94xSTnDSf9%2BCldC%2FIvsMC3Wxn%2FQpDPm2S4EPfPIgb750l%2FtIgAqUoqwSn8oQBCkrOVZPpJDClmGnNY2OpA%3D%3D&X-Amz-Algorithm=AWS4-HMAC-SHA256&X-Amz-Date=20210621T190629Z&X-Amz-SignedHeaders=host&X-Amz-Expires=899&X-Amz-Credential=ASIAUA2QCFAA6PCQC465%2F20210621%2Fus-east-1%2Fs3%2Faws4_request&X-Amz-Signature=a2718a3871dd408ffe7df9672eba251ad64e7b94cb534739e9cf3799f858035f'},\n                      'TranscriptionJobName': '88403ac8-d131-4419-95f5-ee9cb12e3457',\n                      'TranscriptionJobStatus': 'COMPLETED'}}\n"
     ]
    }
   ],
   "source": [
    "res, status = get_result(job_id)\n",
    "print(status)\n",
    "pprint.pprint(res)"
   ]
  },
  {
   "cell_type": "code",
   "execution_count": 30,
   "metadata": {},
   "outputs": [
    {
     "output_type": "execute_result",
     "data": {
      "text/plain": [
       "'https://s3.us-east-1.amazonaws.com/aws-transcribe-us-east-1-prod/373259496378/88403ac8-d131-4419-95f5-ee9cb12e3457/86ba74a4-f987-4839-84ff-6fcda65ae67d/asrOutput.json?X-Amz-Security-Token=IQoJb3JpZ2luX2VjEPv%2F%2F%2F%2F%2F%2F%2F%2F%2F%2FwEaCXVzLWVhc3QtMSJIMEYCIQDfxLhLFQY7CRNNvAENlryAa4VkHLIPwVIadbZ%2FY83RPQIhAJwFAj73NSZAZiwqyUwH39UlFY%2BYXqcu2VM1h73wRg%2BBKoMECMT%2F%2F%2F%2F%2F%2F%2F%2F%2F%2FwEQAhoMMjc2NjU2NDMzMTUzIgyOV9rwWyaWb7%2FEqegq1wNVPUEOHY56h19NRC8woNrvOc%2FR94QgB6Z17N%2FdOrkNkRNX%2BCXgmbeEnc2clFh5mRRIFs5acBeMTf3Ov3Dm7EMWSA7BIoaMORwR6GMeudKD0h7I0veLDz2XCav8PPmps2368wxcH9tM%2BAvAlT%2BSE%2BF%2F%2Fy7AZlazCTkHrSH0Isz1VfCgYmSMeXG%2Fldc2ZyRHUNvkxvG55ulBLxygGB81PttBBjXHjeM4T%2BpD%2BD99LHDe1iqMc6Pen5%2Ff%2F8TtHTy4a7GQ9l%2BZFelJ%2B%2BN9UjX%2BOKcw3AGtPT0Za5ez0s3HQcgOl%2FptebuApvKVY8tB2Qno0c%2FUXRNxHvOrN%2FenYwBTO7ek2P0ktGIZPoZyiiokllhpGc5cQgV4oRU1RRQqDx3QdiV2pyfrVgp7i8TKBEpR%2Bf4043zDpbTtCLCMCGgrHtAtm5fz8bObmkx1TfWekyhvXB9JhtCbz6m1czOgGuU5Buvxt9ENpqC5rLub6%2FgJl1pit3Nj9jc64VgY%2BQQ8iiqR5xD2NvsrZe%2BZMIE27RCdW4ufagaggv0hObrFdi82h1pSxzB6b%2BQYb9Jmp7z0gDYnM5iDaz1XOPXzWqgRxlnJiwdrYDxuE73FGyrnOH4%2B5XozvGAAtU6W4d4w9b3DhgY6pAGyuk1Q7mLXu3K%2FT9SpXj3Tyq%2FgRbFG2xugtdcae5C5lBbqj%2F5o%2B4nSqZdI3q0ilV%2B0IHvQ3HSg%2FEOPawCiPWNDr27MrfxIJgKh2vzxw%2BTXqmQ6oM8CkJll0PaoqGYeOabhRH%2BL6YWq94xSTnDSf9%2BCldC%2FIvsMC3Wxn%2FQpDPm2S4EPfPIgb750l%2FtIgAqUoqwSn8oQBCkrOVZPpJDClmGnNY2OpA%3D%3D&X-Amz-Algorithm=AWS4-HMAC-SHA256&X-Amz-Date=20210621T190629Z&X-Amz-SignedHeaders=host&X-Amz-Expires=899&X-Amz-Credential=ASIAUA2QCFAA6PCQC465%2F20210621%2Fus-east-1%2Fs3%2Faws4_request&X-Amz-Signature=a2718a3871dd408ffe7df9672eba251ad64e7b94cb534739e9cf3799f858035f'"
      ]
     },
     "metadata": {},
     "execution_count": 30
    }
   ],
   "source": [
    "res['TranscriptionJob']['Transcript']['TranscriptFileUri']"
   ]
  },
  {
   "cell_type": "code",
   "execution_count": 41,
   "metadata": {},
   "outputs": [
    {
     "output_type": "stream",
     "name": "stdout",
     "text": [
      "{'accountId': '373259496378',\n 'jobName': '88403ac8-d131-4419-95f5-ee9cb12e3457',\n 'results': {'items': [{'alternatives': [{'confidence': '1.0',\n                                          'content': 'My'}],\n                        'end_time': '0.21',\n                        'start_time': '0.0',\n                        'type': 'pronunciation'},\n                       {'alternatives': [{'confidence': '0.948',\n                                          'content': 'favorite'}],\n                        'end_time': '0.69',\n                        'start_time': '0.21',\n                        'type': 'pronunciation'},\n                       {'alternatives': [{'confidence': '0.59',\n                                          'content': 'place'}],\n                        'end_time': '1.03',\n                        'start_time': '0.69',\n                        'type': 'pronunciation'},\n                       {'alternatives': [{'confidence': '0.59',\n                                          'content': 'is'}],\n                        'end_time': '1.22',\n                        'start_time': '1.03',\n                        'type': 'pronunciation'},\n                       {'alternatives': [{'confidence': '0.996',\n                                          'content': 'the'}],\n                        'end_time': '1.34',\n                        'start_time': '1.22',\n                        'type': 'pronunciation'},\n                       {'alternatives': [{'confidence': '1.0',\n                                          'content': 'garage'}],\n                        'end_time': '2.05',\n                        'start_time': '1.34',\n                        'type': 'pronunciation'},\n                       {'alternatives': [{'confidence': '0.0', 'content': '.'}],\n                        'type': 'punctuation'}],\n             'transcripts': [{'transcript': 'My favorite place is the '\n                                            'garage.'}]},\n 'status': 'COMPLETED'}\n"
     ]
    }
   ],
   "source": [
    "import urllib.request as request\n",
    "\n",
    "with request.urlopen(res['TranscriptionJob']['Transcript']['TranscriptFileUri']) as response:\n",
    "    result = json.loads(response.read())\n",
    "\n",
    "pprint.pprint(result)"
   ]
  },
  {
   "cell_type": "code",
   "execution_count": null,
   "metadata": {},
   "outputs": [],
   "source": []
  }
 ]
}